<?xml version="1.0" encoding="UTF-8"?>
<svg width="250px" height="250px" viewBox="0 0 250 250" version="1.1" xmlns="http://www.w3.org/2000/svg" xmlns:xlink="http://www.w3.org/1999/xlink">
    <!-- Generator: Sketch 43.1 (39012) - http://www.bohemiancoding.com/sketch -->
    <title>Group</title>
    <desc>Created with Sketch.</desc>
    <defs></defs>
    <g id="Page-1" stroke="none" stroke-width="1" fill="none" fill-rule="evenodd">
        <g id="Group" transform="translate(10.000000, 10.000000)">
            <g id="editing-pencil" transform="translate(54.000000, 49.000000)" fill-rule="nonzero" fill="#FF0000">
                <path d="M126.915234,23.0040652 L105.476332,1.54519565 C104.487189,0.55526087 103.144981,0 101.746731,0 C100.345679,0 99.0062728,0.55526087 98.0171299,1.54519565 L1.6443478,97.9923261 C0.63278805,99.0046957 0.0751692424,100.387239 0.103190288,101.820261 L0.484276508,122.897739 C0.53471439,125.735739 2.82403381,128.026891 5.66256573,128.080174 L26.7203815,128.458761 L26.815653,128.458761 C28.2139032,128.458761 29.5561113,127.9035 30.5452542,126.910761 L126.918036,30.4664348 C128.971979,28.4052391 128.971979,25.0652609 126.915234,23.0040652 Z M88.7225491,53.7649565 L74.7372452,39.7684565 L81.0055531,33.4979348 L94.9880549,47.4916304 L88.7225491,53.7649565 Z M39.7221466,102.798978 L25.7396449,88.808087 L67.2836471,47.2308261 L81.2661488,61.2245217 L39.7221466,102.798978 Z M24.669241,117.863935 L10.9361265,117.617152 L10.6867392,103.873043 L18.2832447,96.2676522 L32.2657464,110.261348 L24.669241,117.863935 Z M102.447257,40.0264565 L88.4619533,26.0327609 L101.746731,12.7373478 L115.729233,26.7338478 L102.447257,40.0264565 Z" id="Shape"></path>
            </g>
            <circle id="Oval-2" stroke="#FF0000" stroke-width="20" cx="115" cy="115" r="115"></circle>
        </g>
    </g>
</svg>