<?xml version="1.0" encoding="iso-8859-1"?>
<!-- Generator: Adobe Illustrator 18.1.1, SVG Export Plug-In . SVG Version: 6.00 Build 0)  -->
<svg xmlns="http://www.w3.org/2000/svg" xmlns:xlink="http://www.w3.org/1999/xlink" version="1.1" id="Capa_1" x="0px" y="0px" viewBox="0 0 26 26" style="enable-background:new 0 0 26 26;" xml:space="preserve" width="512px" height="512px">
<g>
	<g>
		<rect x="7" y="11" width="12" height="7" fill="#FFF798"/>
		<path d="M21.125,0H4.875C2.182,0,0,2.182,0,4.875v16.25C0,23.818,2.182,26,4.875,26h16.25    C23.818,26,26,23.818,26,21.125V4.875C26,2.182,23.818,0,21.125,0z M21,10v9c0,0.551-0.449,1-1,1H6c-0.551,0-1-0.449-1-1v-9V8    c0-0.551,0.449-1,1-1h14c0.551,0,1,0.449,1,1V10z" fill="#FFF798"/>
	</g>
</g>
<g>
</g>
<g>
</g>
<g>
</g>
<g>
</g>
<g>
</g>
<g>
</g>
<g>
</g>
<g>
</g>
<g>
</g>
<g>
</g>
<g>
</g>
<g>
</g>
<g>
</g>
<g>
</g>
<g>
</g>
</svg>
