<?xml version="1.0" encoding="UTF-8"?>
<svg width="112px" height="112px" viewBox="0 0 112 112" version="1.1" xmlns="http://www.w3.org/2000/svg" xmlns:xlink="http://www.w3.org/1999/xlink">
    <!-- Generator: Sketch 43.1 (39012) - http://www.bohemiancoding.com/sketch -->
    <title>post-it</title>
    <desc>Created with Sketch.</desc>
    <defs></defs>
    <g id="Page-1" stroke="none" stroke-width="1" fill="none" fill-rule="evenodd">
        <g id="Manager-View-Copy-2" transform="translate(-779.000000, -641.000000)" fill-rule="nonzero" fill="#F40000">
            <g id="post-it" transform="translate(779.000000, 641.000000)">
                <path d="M109.714286,17.107943 L98.2857143,17.107943 L98.2857143,2.28105906 C98.2857143,1.02123014 97.2624,0 96,0 L2.28571429,0 C1.02331429,0 0,1.02123014 0,2.28105906 L0,92.3828921 C0,93.642721 1.02331429,94.6639511 2.28571429,94.6639511 L13.7142857,94.6639511 L13.7142857,109.490835 C13.7142857,110.750664 14.7376,111.771894 16,111.771894 L86.8544,111.771894 C86.8550857,111.771894 86.8557714,111.772122 86.8566857,111.772122 C87.4516571,111.772122 88.0361143,111.540138 88.4733714,111.104 L111.330514,88.2934094 C111.767543,87.8570428 111.994057,87.273776 111.994286,86.6804725 L112,86.6804725 L112,19.389002 C112,18.1291731 110.976686,17.107943 109.714286,17.107943 Z M13.7145143,19.389002 L13.7145143,90.101833 L4.57165714,90.101833 L4.57165714,4.56211813 L93.7145143,4.56211813 L93.7145143,17.107943 L16.0002286,17.107943 C14.7376,17.107943 13.7145143,18.1291731 13.7145143,19.389002 Z M89.1428571,103.983902 L89.1428571,88.9613035 L104.195886,88.9613035 L89.1428571,103.983902 Z M107.428571,84.3991853 L86.8571429,84.3991853 C85.5949714,84.3991853 84.5714286,85.4204155 84.5714286,86.6802444 L84.5714286,107.209776 L18.2857143,107.209776 L18.2857143,21.6700611 L107.428571,21.6700611 L107.428571,84.3991853 Z" id="Shape"></path>
                <rect id="Rectangle-path" x="28.5716571" y="33.0753564" width="64" height="4.56211813"></rect>
                <rect id="Rectangle-path" x="28.5716571" y="46.7617108" width="34.2857143" height="4.56211813"></rect>
                <rect id="Rectangle-path" x="28.5716571" y="60.4480652" width="64" height="4.56211813"></rect>
                <rect id="Rectangle-path" x="28.5716571" y="74.1344196" width="34.2857143" height="4.56211813"></rect>
                <rect id="Rectangle-path" x="28.5716571" y="87.8207739" width="8" height="4.56211813"></rect>
                <rect id="Rectangle-path" x="40.0002286" y="87.8207739" width="8" height="4.56211813"></rect>
                <rect id="Rectangle-path" x="51.4288" y="87.8207739" width="8" height="4.56211813"></rect>
            </g>
        </g>
    </g>
</svg>