<?xml version="1.0" encoding="iso-8859-1"?>
<!-- Generator: Adobe Illustrator 16.0.0, SVG Export Plug-In . SVG Version: 6.00 Build 0)  -->
<!DOCTYPE svg PUBLIC "-//W3C//DTD SVG 1.1//EN" "http://www.w3.org/Graphics/SVG/1.1/DTD/svg11.dtd">
<svg xmlns="http://www.w3.org/2000/svg" xmlns:xlink="http://www.w3.org/1999/xlink" version="1.1" id="Capa_1" x="0px" y="0px" width="512px" height="512px" viewBox="0 0 55.703 55.704" style="enable-background:new 0 0 55.703 55.704;" xml:space="preserve">
<g>
	<g>
		<path d="M27.851,0C12.495,0,0,12.495,0,27.852s12.495,27.851,27.851,27.851c15.357,0,27.852-12.494,27.852-27.851    S43.209,0,27.851,0z M27.851,51.213c-12.882,0-23.362-10.48-23.362-23.362c0-12.882,10.481-23.362,23.362-23.362    c12.883,0,23.364,10.48,23.364,23.362C51.215,40.733,40.734,51.213,27.851,51.213z" fill="#ff0000"/>
		<path d="M38.325,25.607H17.379c-1.239,0-2.244,1.005-2.244,2.244c0,1.239,1.005,2.245,2.244,2.245h20.946    c1.239,0,2.244-1.006,2.244-2.245C40.569,26.612,39.564,25.607,38.325,25.607z" fill="#ff0000"/>
	</g>
</g>
<g>
</g>
<g>
</g>
<g>
</g>
<g>
</g>
<g>
</g>
<g>
</g>
<g>
</g>
<g>
</g>
<g>
</g>
<g>
</g>
<g>
</g>
<g>
</g>
<g>
</g>
<g>
</g>
<g>
</g>
</svg>
