<?xml version="1.0" encoding="UTF-8"?>
<svg width="26px" height="26px" viewBox="0 0 26 26" version="1.1" xmlns="http://www.w3.org/2000/svg" xmlns:xlink="http://www.w3.org/1999/xlink">
    <!-- Generator: Sketch 43.1 (39012) - http://www.bohemiancoding.com/sketch -->
    <title>magnifier</title>
    <desc>Created with Sketch.</desc>
    <defs></defs>
    <g id="Page-1" stroke="none" stroke-width="1" fill="none" fill-rule="evenodd">
        <g id="Sign-In" transform="translate(-614.000000, -403.000000)" fill-rule="nonzero" fill="#F40000">
            <g id="Currently-signed-in" transform="translate(608.000000, 351.000000)">
                <g id="magnifier" transform="translate(6.000000, 52.000000)">
                    <path d="M25.244716,21.8039959 L19.2895926,15.8483909 C18.4022757,17.2283704 17.2279959,18.4020617 15.8480165,19.2894321 L21.8036214,25.245037 C22.7543868,26.1955885 24.29593,26.1955885 25.2446626,25.245037 C26.1954815,24.296037 26.1954815,22.7544938 25.244716,21.8039959 Z" id="Shape"></path>
                    <path d="M19.4683827,9.73421811 C19.4683827,4.35863786 15.1099588,0 9.7342716,0 C4.35869136,0 5.34979423e-05,4.35863786 5.34979423e-05,9.73421811 C5.34979423e-05,15.1097984 4.35869136,19.4682222 9.7342716,19.4682222 C15.1099588,19.4682222 19.4683827,15.1097984 19.4683827,9.73421811 Z M9.7342716,17.0346008 C5.70844444,17.0346008 2.4336749,13.7600988 2.4336749,9.7342716 C2.4336749,5.70844444 5.70844444,2.4336749 9.7342716,2.4336749 C13.7599918,2.4336749 17.0350288,5.70844444 17.0350288,9.7342716 C17.0350288,13.7600988 13.7599918,17.0346008 9.7342716,17.0346008 Z" id="Shape"></path>
                    <path d="M4.0560535,9.73421811 L5.67821811,9.73421811 C5.67821811,7.49784362 7.49789712,5.6783251 9.73421811,5.6783251 L9.73421811,4.056 C6.60367901,4.056 4.0560535,6.60362551 4.0560535,9.73421811 Z" id="Shape"></path>
                </g>
            </g>
        </g>
    </g>
</svg>